<svg xmlns="http://www.w3.org/2000/svg" xmlns:xlink="http://www.w3.org/1999/xlink" width="500" zoomAndPan="magnify" viewBox="0 0 375 374.999991" height="500" preserveAspectRatio="xMidYMid meet" version="1.0"><defs><g/><clipPath id="11beca50aa"><path d="M 135.335938 127 L 196 127 L 196 188.878906 L 135.335938 188.878906 Z M 135.335938 127 " clip-rule="nonzero"/></clipPath><clipPath id="71fbbba7d5"><path d="M 179 98.128906 L 239.585938 98.128906 L 239.585938 188.878906 L 179 188.878906 Z M 179 98.128906 " clip-rule="nonzero"/></clipPath><clipPath id="ae3ed274cb"><path d="M 135.335938 182 L 186 182 L 186 188.878906 L 135.335938 188.878906 Z M 135.335938 182 " clip-rule="nonzero"/></clipPath><clipPath id="153053ee23"><path d="M 179 111 L 239.585938 111 L 239.585938 188.878906 L 179 188.878906 Z M 179 111 " clip-rule="nonzero"/></clipPath><clipPath id="74c2e5d2dd"><path d="M 179 98.128906 L 188 98.128906 L 188 113 L 179 113 Z M 179 98.128906 " clip-rule="nonzero"/></clipPath></defs><g clip-path="url(#11beca50aa)"><path fill="#38b6ff" d="M 187.460938 127.5625 L 170.566406 127.5625 L 135.335938 188.828125 L 186.019531 188.828125 L 195.910156 171.632812 L 188.898438 159.445312 L 187.460938 156.941406 L 186.019531 159.445312 L 177.574219 174.136719 L 160.679688 174.136719 Z M 187.460938 127.5625 " fill-opacity="1" fill-rule="evenodd"/></g><g clip-path="url(#71fbbba7d5)"><path fill="#ffffff" d="M 239.585938 188.828125 L 187.460938 98.179688 L 179.015625 112.871094 L 182.902344 119.632812 L 187.460938 127.5625 L 192.097656 135.621094 L 214.242188 174.136719 L 218.800781 182.066406 L 222.691406 188.828125 Z M 239.585938 188.828125 " fill-opacity="1" fill-rule="evenodd"/></g><path fill="#2493d4" d="M 187.460938 127.5625 L 174.339844 134.519531 L 147 182.066406 L 160.679688 174.136719 Z M 187.460938 127.5625 " fill-opacity="1" fill-rule="evenodd"/><g clip-path="url(#ae3ed274cb)"><path fill="#2493d4" d="M 147 182.066406 L 135.335938 188.828125 L 185.507812 188.828125 L 181.855469 182.066406 Z M 147 182.066406 " fill-opacity="1" fill-rule="evenodd"/></g><path fill="#2493d4" d="M 177.574219 174.136719 L 181.855469 182.066406 L 186.246094 174.136719 L 187.976562 171.007812 L 187.460938 156.941406 Z M 177.574219 174.136719 " fill-opacity="1" fill-rule="evenodd"/><g clip-path="url(#153053ee23)"><path fill="#68696e" d="M 192.097656 135.621094 L 214.242188 174.136719 L 218.800781 182.066406 L 222.691406 188.828125 L 239.585938 188.828125 L 227.921875 182.066406 L 187.460938 111.703125 L 179.015625 112.871094 L 182.902344 119.632812 L 187.460938 127.5625 Z M 192.097656 135.621094 " fill-opacity="1" fill-rule="evenodd"/></g><g clip-path="url(#74c2e5d2dd)"><path fill="#a6a6a6" d="M 187.460938 111.703125 L 187.460938 98.179688 L 179.015625 112.871094 Z M 187.460938 111.703125 " fill-opacity="1" fill-rule="evenodd"/></g><g fill="#38b6ff" fill-opacity="1"><g transform="translate(86.509319, 224.776759)"><g><path d="M 3.703125 0.109375 C 2.910156 0.0351562 1.988281 0 0.9375 0 L -0.15625 0 L 5.828125 -16.78125 C 6.097656 -17.53125 6.234375 -17.96875 6.234375 -18.09375 C 6.234375 -18.21875 6.226562 -18.289062 6.21875 -18.3125 L 6.234375 -18.34375 C 6.828125 -18.320312 7.460938 -18.3125 8.140625 -18.3125 C 8.679688 -18.3125 9.335938 -18.316406 10.109375 -18.328125 L 10.125 -18.3125 C 10.113281 -18.269531 10.109375 -18.21875 10.109375 -18.15625 C 10.109375 -17.976562 10.242188 -17.515625 10.515625 -16.765625 L 16.625 0.046875 C 16.4375 0.0351562 16.222656 0.03125 15.984375 0.03125 C 15.984375 0.03125 15.742188 0.0195312 15.265625 0 C 15.035156 0 14.828125 0 14.640625 0 L 12.515625 0 L 11.21875 -3.96875 L 5 -3.96875 Z M 10.140625 -7.265625 L 8.0625 -13.671875 L 6.046875 -7.265625 Z M 10.140625 -7.265625 "/></g></g></g><g fill="#38b6ff" fill-opacity="1"><g transform="translate(110.000639, 224.776759)"><g><path d="M 12.796875 -18.375 C 13.367188 -18.332031 13.84375 -18.3125 14.21875 -18.3125 L 15.359375 -18.3125 C 15.742188 -18.3125 16.148438 -18.347656 16.578125 -18.421875 L 16.578125 -7.03125 C 16.578125 -4.769531 15.890625 -2.957031 14.515625 -1.59375 C 13.222656 -0.300781 11.597656 0.34375 9.640625 0.34375 C 7.503906 0.34375 5.773438 -0.210938 4.453125 -1.328125 C 2.984375 -2.566406 2.25 -4.363281 2.25 -6.71875 L 2.25 -18.375 C 3.007812 -18.332031 3.722656 -18.3125 4.390625 -18.3125 C 5.066406 -18.3125 5.625 -18.347656 6.0625 -18.421875 L 6.0625 -6.53125 C 6.0625 -5.375 6.414062 -4.476562 7.125 -3.84375 C 7.789062 -3.25 8.617188 -2.953125 9.609375 -2.953125 C 11.078125 -2.953125 12.050781 -3.707031 12.53125 -5.21875 C 12.707031 -5.757812 12.796875 -6.425781 12.796875 -7.21875 Z M 12.796875 -18.375 "/></g></g></g><g fill="#38b6ff" fill-opacity="1"><g transform="translate(135.845173, 224.776759)"><g><path d="M 8.28125 -7.109375 C 8.007812 -7.097656 7.71875 -7.09375 7.40625 -7.09375 C 7.09375 -7.09375 6.628906 -7.113281 6.015625 -7.15625 L 6.015625 0 L 2.375 0 L 2.375 -18.40625 C 3.65625 -18.570312 5.234375 -18.65625 7.109375 -18.65625 C 9.648438 -18.65625 11.546875 -18.179688 12.796875 -17.234375 C 14.054688 -16.296875 14.6875 -14.84375 14.6875 -12.875 C 14.6875 -11.351562 14.113281 -10.050781 12.96875 -8.96875 C 12.59375 -8.625 12.160156 -8.320312 11.671875 -8.0625 L 14.484375 -2.140625 C 15.035156 -0.921875 15.457031 -0.195312 15.75 0.03125 L 15.671875 0.09375 C 14.785156 -0.0507812 13.390625 -0.046875 11.484375 0.109375 Z M 7.359375 -15.40625 C 6.890625 -15.40625 6.441406 -15.378906 6.015625 -15.328125 L 6.015625 -10.078125 C 6.460938 -10.015625 6.988281 -9.984375 7.59375 -9.984375 C 8.195312 -9.984375 8.707031 -10.035156 9.125 -10.140625 C 9.539062 -10.242188 9.898438 -10.40625 10.203125 -10.625 C 10.847656 -11.113281 11.171875 -11.84375 11.171875 -12.8125 C 11.171875 -13.78125 10.832031 -14.460938 10.15625 -14.859375 C 9.519531 -15.222656 8.585938 -15.40625 7.359375 -15.40625 Z M 7.359375 -15.40625 "/></g></g></g><g fill="#38b6ff" fill-opacity="1"><g transform="translate(159.281447, 224.776759)"><g><path d="M 3.703125 0.109375 C 2.910156 0.0351562 1.988281 0 0.9375 0 L -0.15625 0 L 5.828125 -16.78125 C 6.097656 -17.53125 6.234375 -17.96875 6.234375 -18.09375 C 6.234375 -18.21875 6.226562 -18.289062 6.21875 -18.3125 L 6.234375 -18.34375 C 6.828125 -18.320312 7.460938 -18.3125 8.140625 -18.3125 C 8.679688 -18.3125 9.335938 -18.316406 10.109375 -18.328125 L 10.125 -18.3125 C 10.113281 -18.269531 10.109375 -18.21875 10.109375 -18.15625 C 10.109375 -17.976562 10.242188 -17.515625 10.515625 -16.765625 L 16.625 0.046875 C 16.4375 0.0351562 16.222656 0.03125 15.984375 0.03125 C 15.984375 0.03125 15.742188 0.0195312 15.265625 0 C 15.035156 0 14.828125 0 14.640625 0 L 12.515625 0 L 11.21875 -3.96875 L 5 -3.96875 Z M 10.140625 -7.265625 L 8.0625 -13.671875 L 6.046875 -7.265625 Z M 10.140625 -7.265625 "/></g></g></g><g fill="#38b6ff" fill-opacity="1"><g transform="translate(182.772767, 224.776759)"><g><path d="M 5.046875 0 C 3.703125 0 2.8125 0.0234375 2.375 0.078125 L 2.375 -18.390625 C 2.59375 -18.335938 3.046875 -18.3125 3.734375 -18.3125 C 4.429688 -18.3125 5.238281 -18.328125 6.15625 -18.359375 L 6.15625 -3.296875 L 9 -3.296875 C 9.820312 -3.296875 10.484375 -3.328125 10.984375 -3.390625 C 10.921875 -1.242188 10.890625 -0.128906 10.890625 -0.046875 L 10.890625 0.09375 C 9.984375 0.03125 8.472656 0 6.359375 0 Z M 5.046875 0 "/></g></g></g><g fill="#38b6ff" fill-opacity="1"><g transform="translate(201.557647, 224.776759)"><g><path d="M 6.078125 0.078125 C 5.640625 0.0234375 4.789062 0 3.53125 0 L 2.4375 0 L 2.4375 -18.359375 C 3.019531 -18.328125 3.664062 -18.3125 4.375 -18.3125 C 5.082031 -18.3125 5.582031 -18.347656 5.875 -18.421875 L 10.5 -10.5625 L 14.953125 -18.421875 C 15.242188 -18.347656 15.800781 -18.3125 16.625 -18.3125 C 17.445312 -18.3125 18.15625 -18.328125 18.75 -18.359375 L 18.75 0 L 17.640625 0 C 16.390625 0 15.539062 0.0234375 15.09375 0.078125 L 15.09375 -12.25 L 10.59375 -4.203125 L 6.078125 -11.609375 Z M 6.078125 0.078125 "/></g></g></g><g fill="#a6a6a6" fill-opacity="1"><g transform="translate(229.747595, 224.776759)"><g><path d="M 3.703125 0.109375 C 2.910156 0.0351562 1.988281 0 0.9375 0 L -0.15625 0 L 5.828125 -16.78125 C 6.097656 -17.53125 6.234375 -17.96875 6.234375 -18.09375 C 6.234375 -18.21875 6.226562 -18.289062 6.21875 -18.3125 L 6.234375 -18.34375 C 6.828125 -18.320312 7.460938 -18.3125 8.140625 -18.3125 C 8.679688 -18.3125 9.335938 -18.316406 10.109375 -18.328125 L 10.125 -18.3125 C 10.113281 -18.269531 10.109375 -18.21875 10.109375 -18.15625 C 10.109375 -17.976562 10.242188 -17.515625 10.515625 -16.765625 L 16.625 0.046875 C 16.4375 0.0351562 16.222656 0.03125 15.984375 0.03125 C 15.984375 0.03125 15.742188 0.0195312 15.265625 0 C 15.035156 0 14.828125 0 14.640625 0 L 12.515625 0 L 11.21875 -3.96875 L 5 -3.96875 Z M 10.140625 -7.265625 L 8.0625 -13.671875 L 6.046875 -7.265625 Z M 10.140625 -7.265625 "/></g></g></g><g fill="#ffffff" fill-opacity="1"><g transform="translate(253.231968, 224.776759)"><g><path d="M 8.96875 0.078125 C 8.53125 0.0234375 7.398438 0 5.578125 0 L 5.140625 0 L 5.140625 -15.21875 L 2.40625 -15.21875 C 1.601562 -15.21875 1.125 -15.175781 0.96875 -15.09375 C 0.820312 -15.007812 0.710938 -14.9375 0.640625 -14.875 L 0.59375 -14.890625 L 0.59375 -18.421875 L 0.640625 -18.453125 C 0.941406 -18.359375 1.753906 -18.3125 3.078125 -18.3125 L 11.71875 -18.3125 C 12.519531 -18.3125 12.992188 -18.347656 13.140625 -18.421875 C 13.285156 -18.503906 13.398438 -18.582031 13.484375 -18.65625 L 13.53125 -18.640625 L 13.53125 -15.109375 L 13.484375 -15.078125 C 13.179688 -15.171875 12.363281 -15.21875 11.03125 -15.21875 L 8.96875 -15.21875 Z M 8.96875 0.078125 "/></g></g></g><g fill="#ffffff" fill-opacity="1"><g transform="translate(274.370063, 224.776759)"><g><path d="M 11.578125 -3.296875 C 12.140625 -3.296875 12.535156 -3.351562 12.765625 -3.46875 L 12.8125 -3.453125 L 12.671875 0 L 2.375 0 L 2.375 -18.40625 C 2.613281 -18.382812 2.882812 -18.367188 3.1875 -18.359375 L 4.15625 -18.328125 C 4.800781 -18.316406 5.5 -18.3125 6.25 -18.3125 C 8.351562 -18.3125 10.429688 -18.347656 12.484375 -18.421875 C 12.378906 -17.609375 12.328125 -16.53125 12.328125 -15.1875 C 12.328125 -15.03125 12.335938 -14.914062 12.359375 -14.84375 L 12.328125 -14.8125 C 11.847656 -14.945312 11.171875 -15.015625 10.296875 -15.015625 L 5.953125 -15.015625 L 5.953125 -11.5 L 9.21875 -11.5 C 10.226562 -11.5 10.832031 -11.53125 11.03125 -11.59375 L 11.078125 -8.1875 C 10.640625 -8.238281 10.070312 -8.265625 9.375 -8.265625 L 5.953125 -8.265625 L 5.953125 -3.296875 Z M 11.578125 -3.296875 "/></g></g></g></svg>